# xmcd
#
# Track frame offsets:
# 151
# 16204
# 32447
# 49768
# 69331
# 94262
# 110367
# 126655
# 146032
# 162797
# 165134
# 183634
#
# Disc length: 2640 seconds
#
# Revision: 0
# Processed by: cddbd v1.4PL0 Copyright (c) Steve Scherf et al.
# Submitted via: Audion 3.0.2 (http://www.panic.com/audion/)
#
DISCID=9a0a4e0c
DTITLE=Bill Miller - Healing Waters
DYEAR=1900
DGENRE=
TTITLE0=I Believe
TTITLE1=Hanging On A Memory
TTITLE2=River And The Rain
TTITLE3=Sundog
TTITLE4=You're The Rain
TTITLE5=Healing Waters
TTITLE6=Voice Of Love
TTITLE7=Faith
TTITLE8=Red Sky Red Heart
TTITLE9=Ghost Dance Prelude
TTITLE10=Ghost Dance
TTITLE11=Prayers For The Truth
EXTD=
EXTT0=
EXTT1=
EXTT2=
EXTT3=
EXTT4=
EXTT5=
EXTT6=
EXTT7=
EXTT8=
EXTT9=
EXTT10=
EXTT11=
PLAYORDER=
